<svg xmlns="http://www.w3.org/2000/svg" xmlns:xlink="http://www.w3.org/1999/xlink" xmlns:inkscape="http://www.inkscape.org/namespaces/inkscape" version="1.1" width="99" height="60" viewBox="0 0 99 60">
<defs>
<path id="font_1_2" d="M.08999634 .269989C.08699036 .2689972 .084991458 .2669983 .083999637 .2639923 .08299255 .26098634 .08299255 .25698854 .08299255 .2539978 .08299255 .24598694 .08198547 .23599243 .08999634 .23199463 .09700012 .22898865 .10798645 .23098755 .115997318 .23098755H.1749878 .5479889 .6539917 .6779938C.68299868 .23098755 .6879883 .23098755 .69099429 .23498535 .69499209 .23799134 .69499209 .24299622 .69499209 .24798584 .69499209 .2559967 .69599917 .2679901 .6859894 .269989 .6819916 .2709961 .6769867 .2709961 .6729889 .2709961H.6489868 .57199099 .22999573 .13198853 .10499573C.099990848 .2709961 .09498596 .27198792 .08999634 .269989Z"/>
<path id="font_1_1" d="M.36898805 .2709961H.1519928 .100997928C.09399414 .2709961 .085998538 .269989 .083999637 .2619934 .08198547 .2539978 .08099365 .23799134 .08799744 .23298645 .09298706 .22999573 .099990848 .23098755 .10598755 .23098755H.14698792 .36898805V.0129852299C.36898805-.0040130617 .36898805-.020004273 .36898805-.037002565 .36898805-.044006349 .36999513-.052001954 .37799073-.054000856 .3849945-.056015016 .40098573-.057006837 .4059906-.05101013 .4099884-.04600525 .40899659-.038009645 .40899659-.03201294V.008987427 .23098755H.6259918 .6769867C.6839905 .23098755 .69200137 .23199463 .69400027 .23999024 .69599917 .24798584 .69699099 .2639923 .6899872 .2689972 .68499758 .27198792 .6779938 .2709961 .6719971 .2709961H.6309967 .40899659V.49299623 .5339966C.40899659 .5399933 .4099884 .5479889 .4059906 .5529938 .40098573 .5589905 .3849945 .55799868 .37799073 .55599978 .36999513 .55400088 .36898805 .54599 .36898805 .5389862 .36898805 .5219879 .36898805 .5059967 .36898805 .4889984V.2709961Z"/>
<path id="font_2_82" d="M.42399598 0V.057998659H.29899598V.6777344H.2789917C.21998596 .6166992 .13699341 .6137085 .08898926 .6117096V.55371096C.12199402 .55470278 .16999817 .55670168 .21998596 .57769778V.057998659H.09498596V0H.42399598Z"/>
<path id="font_2_121" d="M.45700074 .32554627C.45700074 .4045868 .45298768 .49765016 .41099549 .57870486 .36999513 .6537323 .30099488 .6777344 .25 .6777344 .19099427 .6777344 .12098694 .6507263 .07998657 .5616913 .04699707 .48864747 .041992189 .40559388 .041992189 .32554627 .041992189 .24649048 .04598999 .17344666 .07598877 .10043335 .115997318 .0045318605 .19198609-.022460938 .24899292-.022460938 .32199098-.022460938 .3849945 .01852417 .4169922 .08743286 .44699098 .1524353 .45700074 .21847534 .45700074 .32554627M.3789978 .33755494C.3789978 .27149964 .3789978 .20846558 .36099244 .14543152 .33499146 .054504396 .28199769 .038528444 .25 .038528444 .19799805 .038528444 .15699768 .07644653 .13699341 .1484375 .12098694 .20599365 .11999512 .2599945 .11999512 .33799745 .11999512 .40072633 .11999512 .46072389 .13699341 .5157318 .14299011 .534729 .16799927 .61672976 .24899292 .61672976 .32699586 .61672976 .35299684 .5407257 .3600006 .52272036 .3789978 .46672059 .3789978 .39971925 .3789978 .33772279V.33755494Z"/>
<path id="font_2_111" d="M.6519928 .69433596H.57398989L.44099427 .3521576C.4249878 .31114198 .34999085 .11804199 .34098817 .072021488H.33999635C.33198548 .11204529 .2889862 .22209168 .27999879 .24610901L.10699463 .69433596H.01399231L.2869873 0H.3789978L.6519928 .69433596Z"/>
</defs>
<path transform="matrix(1.00003,0,0,-1,35.14058,58.492)" stroke-width=".3985" stroke-linecap="butt" stroke-miterlimit="10" stroke-linejoin="miter" fill="none" stroke="#000000" d="M0 56.69362V40.25252M0 16.44109V0"/>
<path transform="matrix(1.00003,0,0,-1,35.14058,58.492)" stroke-width=".797" stroke-linecap="butt" stroke-miterlimit="10" stroke-linejoin="miter" fill="none" stroke="#000000" d="M11.90572 28.3468C11.90572 34.92223 6.57541 40.25252 0 40.25252-6.57541 40.25252-11.90572 34.92223-11.90572 28.3468-11.90572 21.77138-6.57541 16.44109 0 16.44109 6.57541 16.44109 11.90572 21.77138 11.90572 28.3468ZM0 28.3468"/>
<use data-text="&#x00b4;" xlink:href="#font_1_2" transform="matrix(9.962899,0,0,-9.9626,31.267464,37.666)"/>
<use data-text="`" xlink:href="#font_1_1" transform="matrix(9.962899,0,0,-9.9626,31.267464,27.605002)"/>
<use data-text="1" xlink:href="#font_2_82" transform="matrix(9.962899,0,0,-9.9626,.50753787,32.292)"/>
<use data-text="0" xlink:href="#font_2_121" transform="matrix(9.962899,0,0,-9.9626,5.488991,32.292)"/>
<use data-text="V" xlink:href="#font_2_111" transform="matrix(9.962899,0,0,-9.9626,13.778122,32.292)"/>
<path transform="matrix(1.00003,0,0,-1,35.14058,58.492)" stroke-width=".3985" stroke-linecap="butt" stroke-miterlimit="10" stroke-linejoin="miter" fill="none" stroke="#000000" d="M0 56.69362H28.3468M28.3468 56.69362H56.69362"/>
<path transform="matrix(1.00003,0,0,-1,35.14058,58.492)" stroke-width=".3985" stroke-linecap="butt" stroke-miterlimit="10" stroke-linejoin="miter" fill="none" stroke="#000000" d="M56.69362 56.69362V44.221M56.69362 12.47261V0"/>
<path transform="matrix(1.00003,0,0,-1,35.14058,58.492)" stroke-width=".797" stroke-linecap="butt" stroke-linejoin="bevel" fill="none" stroke="#000000" d="M56.69362 44.6195 62.64647 41.5753 50.74075 36.28392 62.64647 30.99254 50.74075 25.70116 62.64647 20.40977 50.74075 15.1184 56.69362 12.07419"/>
<path transform="matrix(1.00003,0,0,-1,35.14058,58.492)" stroke-width=".3985" stroke-linecap="butt" stroke-miterlimit="10" stroke-linejoin="miter" fill="none" stroke="#000000" d="M0 0H28.3468M28.3468 0H56.69362"/>
</svg>
