<svg xmlns="http://www.w3.org/2000/svg" xmlns:xlink="http://www.w3.org/1999/xlink" xmlns:inkscape="http://www.inkscape.org/namespaces/inkscape" version="1.1" width="223" height="151" viewBox="0 0 223 151">
<defs>
<path id="font_1_89" d="M.72099307 .25045777C.72099307 .27046205 .70199587 .27046205 .6879883 .27046205H.40899659V.5500488C.40899659 .5640259 .40899659 .5830078 .3889923 .5830078 .36898805 .5830078 .36898805 .5640259 .36898805 .5500488V.27046205H.08898926C.07499695 .27046205 .055999757 .27046205 .055999757 .25045777 .055999757 .23046875 .07499695 .23046875 .08898926 .23046875H.36898805V-.049972536C.36898805-.0639801 .36898805-.08300781 .3889923-.08300781 .40899659-.08300781 .40899659-.0639801 .40899659-.049972536V.23046875H.6879883C.70199587 .23046875 .72099307 .23046875 .72099307 .25045777Z"/>
<path id="font_2_2" d="M.28399659 .6252594C.28399659 .6452637 .269989 .6612549 .24699402 .6612549 .21998596 .6612549 .19299317 .6352539 .19299317 .6082611 .19299317 .5892639 .20698548 .5722656 .23098755 .5722656 .2539978 .5722656 .28399659 .5952606 .28399659 .6252594M.20799256 .24932862C.21998596 .27833558 .21998596 .28033448 .22999573 .30734254 .23799134 .3273468 .24299622 .34135438 .24299622 .36035157 .24299622 .405365 .21099854 .4423828 .16099549 .4423828 .066986087 .4423828 .0289917 .29733277 .0289917 .28833009 .0289917 .27833558 .038986207 .27833558 .040985109 .27833558 .050994874 .27833558 .051986696 .28033448 .056991579 .29634095 .083999637 .3903656 .12399292 .42037965 .1579895 .42037965 .1659851 .42037965 .18299866 .42037965 .18299866 .3883667 .18299866 .36735536 .17599488 .346344 .17199707 .3363495 .1639862 .31033326 .11898804 .19430542 .102996829 .1512909 .09298706 .12528992 .07998657 .0922699 .07998657 .0712738 .07998657 .024261475 .11399841-.0107421879 .1619873-.0107421879 .2559967-.0107421879 .29299928 .1342926 .29299928 .14329529 .29299928 .1532898 .28399659 .1532898 .2809906 .1532898 .2709961 .1532898 .2709961 .15029907 .2659912 .13528443 .24798584 .072265628 .21499634 .011245728 .1639862 .011245728 .14698792 .011245728 .13999939 .021255494 .13999939 .044265748 .13999939 .0692749 .1459961 .08326721 .16899109 .14428711L.20799256 .24932862Z"/>
<path id="font_3_1" d="M.20599365 .11984253C.17098999 .06594849 .13899231 .039978029 .07998657 .035995485 .069992069 .034988405 .056991579 .034988405 .056991579 .01499939 .056991579 .0039978029 .06599426 0 .070999149 0 .09700012 0 .12998963 .0039978029 .15699768 .0039978029 .18899536 .0039978029 .22999573 0 .2599945 0 .2649994 0 .27999879 0 .27999879 .021987915 .27999879 .034988405 .2669983 .035995485 .2630005 .035995485 .25498963 .036987306 .21899414 .038986207 .21899414 .06594849 .21899414 .077926639 .22898865 .09489441 .23399353 .103881839L.31399537 .22766114H.59999087L.6239929 .061950685C.6199951 .051971437 .6139984 .035995485 .5549927 .035995485 .54299929 .035995485 .5289917 .035995485 .5289917 .01399231 .5289917 .009994507 .5319977 0 .54499819 0 .57398989 0 .644989 .0039978029 .673996 .0039978029 .69200137 .0039978029 .71499636 .0029907227 .73298647 .0029907227 .7509918 .0019989014 .7719879 0 .7899933 0 .8029938 0 .80999758 .0079956059 .80999758 .020996094 .80999758 .035995485 .7979889 .035995485 .7819977 .035995485 .723999 .035995485 .7220001 .04397583 .71899417 .06793213L.6309967 .6848755C.6279907 .70588687 .6259918 .7128906 .6069946 .7128906 .58799746 .7128906 .58200076 .70388796 .57299807 .6898804L.20599365 .11984253M.33799745 .26367188 .5479889 .5908356 .59498599 .26367188H.33799745Z"/>
<path id="font_3_2" d="M.84298709 .6901245C.84298709 .69511416 .83999636 .703125 .8299866 .703125 .82299807 .703125 .82099917 .70111086 .81199648 .69111636L.7389984 .61413577C.7299957 .62612918 .673996 .703125 .5509949 .703125 .30799867 .703125 .069992069 .48820497 .069992069 .2623291 .069992069 .09941101 .19799805-.01953125 .3769989-.01953125 .43099977-.01953125 .5269928-.008544922 .6299896 .078430179 .70899966 .14538574 .73098757 .23234558 .73098757 .24034119 .73098757 .25334168 .71899417 .25334168 .71398928 .25334168 .70098879 .25334168 .69898989 .24833679 .69599917 .23735047 .6549988 .10041809 .5149994 .016464234 .3939972 .016464234 .28799439 .016464234 .16999817 .07342529 .16999817 .23135376 .16999817 .2603302 .1769867 .4182434 .2919922 .5441742 .36099244 .6211395 .46598817 .66711428 .5609894 .66711428 .6769867 .66711428 .7449951 .5831604 .7449951 .47122193 .7449951 .4432373 .74198916 .43623353 .74198916 .43023683 .74198916 .4172516 .7549896 .4172516 .7599945 .4172516 .776001 .4172516 .776001 .4202423 .7809906 .4392395L.84298709 .6901245Z"/>
<path id="font_4_1" d="M.31698609 .75C.31098939 .7480011 .30599977 .7429962 .30099488 .7389984 .29100038 .7299957 .28199769 .7220001 .272995 .71299746 .23799134 .6779938 .20799256 .6389923 .18299866 .59599307 .1309967 .5019989 .10499573 .3939972 .100997928 .2869873 .09700012 .18899536 .10899353 .09199524 .14099121-.0010070801 .16699219-.07600403 .20899964-.14700318 .2649994-.20300293 .27799989-.21600342 .29100038-.2290039 .30599977-.24101258 .31199647-.24501038 .31900025-.25100709 .32699586-.2480011 .33399964-.2440033 .33299256-.23600769 .32899476-.23100281 .31799317-.21800232 .30499269-.20700073 .2939911-.1940155 .24598694-.13700867 .21299744-.070007327 .19198609 .0009918213 .16699219 .08099365 .15899658 .1659851 .15899658 .25 .15899658 .37399293 .1769867 .5049896 .23899842 .61499026 .2539978 .6439972 .272995 .67099 .2939911 .69599917 .30099488 .70399478 .30799867 .71199038 .31599427 .7200012 .32099916 .72499087 .32699586 .7299957 .33099366 .73599246 .33599855 .74598696 .32598878 .7529907 .31698609 .75Z"/>
<path id="font_2_3" d="M.20599365 .3996582H.2999878C.31999208 .3996582 .32998658 .3996582 .32998658 .41966249 .32998658 .43066407 .31999208 .43066407 .3019867 .43066407H.21398926C.25 .5724945 .25498963 .59246829 .25498963 .59846499 .25498963 .61546328 .24299622 .62545779 .22599793 .62545779 .22299195 .62545779 .19499207 .62446597 .18598938 .58947756L.14698792 .43066407H.052993776C.032989503 .43066407 .022994996 .43066407 .022994996 .4116516 .022994996 .3996582 .0309906 .3996582 .050994874 .3996582H.13899231C.066986087 .11608887 .06298828 .099121097 .06298828 .08114624 .06298828 .02722168 .100997928-.0107421879 .15499878-.0107421879 .25698854-.0107421879 .31399537 .13505554 .31399537 .14305115 .31399537 .1530304 .30599977 .1530304 .3019867 .1530304 .29299928 .1530304 .2919922 .15003968 .2869873 .13905335 .24398804 .035217287 .19099427 .011245728 .15699768 .011245728 .13598633 .011245728 .12599182 .024230957 .12599182 .057174684 .12599182 .08114624 .12799073 .088134769 .13198853 .10510254L.20599365 .3996582Z"/>
<path id="font_4_2" d="M.06298828 .75C.055999757 .746994 .055999757 .73999026 .05999756 .73399356 .067993167 .7220001 .08099365 .71199038 .09098816 .70098879 .1349945 .6499939 .16699219 .58999636 .18899536 .526001 .21998596 .43699647 .22999573 .34298707 .22999573 .25 .22999573 .1329956 .21299744 .011993408 .1599884-.0940094 .14299011-.12800598 .12298584-.16000366 .09799194-.19000244 .09199524-.1980133 .084991458-.20600891 .07699585-.21400452 .070999149-.22000122 .06498718-.2250061 .05999756-.23200989 .053985597-.2400055 .05899048-.25001527 .068984989-.24900818 .07499695-.2480011 .07998657-.24301148 .083999637-.2400055 .09399414-.23200989 .10398865-.2230072 .11299133-.21400452 .1499939-.17700196 .18199158-.13700867 .20698548-.09100342 .2709961 .023986817 .29299928 .15699768 .28799439 .2869873 .2849884 .37098695 .2689972 .45498658 .23599243 .5329895 .20899964 .598999 .16999817 .6589966 .11999512 .70899966 .10798645 .72099307 .09599304 .7319946 .08299255 .7429962 .07699585 .746994 .070999149 .7529907 .06298828 .75Z"/>
<path id="font_1_56" d="M.44898988 .2028656C.44898988 .328125 .36299134 .42720033 .2599945 .42720033 .21998596 .42720033 .18199158 .41220094 .15299988 .38619996V.5922394H.41600038V.65625H.08099365V.28704835H.14698792C.1639862 .32711793 .20098877 .36621095 .25898744 .36621095 .30599977 .36621095 .3600006 .32511903 .3600006 .20487976 .3600006 .038528444 .23799134 .038528444 .22898865 .038528444 .1619873 .038528444 .100997928 .0776062 .07199097 .13172913L.038986207 .0756073C.07998657 .01852417 .14898682-.022460938 .22999573-.022460938 .34899903-.022460938 .44898988 .07661438 .44898988 .2028656Z"/>
<path id="font_1_121" d="M.45700074 .32554627C.45700074 .4045868 .45298768 .49765016 .41099549 .57870486 .36999513 .6537323 .30099488 .6777344 .25 .6777344 .19099427 .6777344 .12098694 .6507263 .07998657 .5616913 .04699707 .48864747 .041992189 .40559388 .041992189 .32554627 .041992189 .24649048 .04598999 .17344666 .07598877 .10043335 .115997318 .0045318605 .19198609-.022460938 .24899292-.022460938 .32199098-.022460938 .3849945 .01852417 .4169922 .08743286 .44699098 .1524353 .45700074 .21847534 .45700074 .32554627M.3789978 .33755494C.3789978 .27149964 .3789978 .20846558 .36099244 .14543152 .33499146 .054504396 .28199769 .038528444 .25 .038528444 .19799805 .038528444 .15699768 .07644653 .13699341 .1484375 .12098694 .20599365 .11999512 .2599945 .11999512 .33799745 .11999512 .40072633 .11999512 .46072389 .13699341 .5157318 .14299011 .534729 .16799927 .61672976 .24899292 .61672976 .32699586 .61672976 .35299684 .5407257 .3600006 .52272036 .3789978 .46672059 .3789978 .39971925 .3789978 .33772279V.33755494Z"/>
<path id="font_5_1" d="M.6769867 .16200257H.6519928C.6469879 .13600159 .6429901 .11299133 .6339874 .08898926 .6289978 .07299805 .6259918 .06498718 .56799319 .06498718H.48799134C.5009918 .1210022 .5319977 .16900635 .57699587 .23501587 .6239929 .306015 .6649933 .37503053 .6649933 .45404054 .6649933 .59306338 .5299988 .7050781 .36099244 .7050781 .18899536 .7050781 .055999757 .5910492 .055999757 .45404054 .055999757 .37503053 .09700012 .306015 .14399719 .23501587 .18798828 .16900635 .21998596 .1210022 .23298645 .06498718H.15299988C.09498596 .06498718 .09199524 .07299805 .08699036 .08799744 .07899475 .11099243 .07398987 .13700867 .068984989 .16200257H.04399109L.07699585 0H.23699951C.25898744 0 .2619934 0 .2619934 .020996094 .2619934 .09098816 .23098755 .17900086 .20799256 .24301148 .18699646 .3010254 .15899658 .3800354 .15899658 .45503236 .15899658 .6150665 .2689972 .68307498 .3600006 .68307498 .45599366 .68307498 .56199648 .61105349 .56199648 .45503236 .56199648 .3800354 .5349884 .3040161 .5059967 .22201538 .4909973 .18000794 .45899964 .08999634 .45899964 .020996094 .45899964 0 .46199037 0 .4850006 0H.6439972L.6769867 .16200257Z"/>
<path id="font_1_82" d="M.42399598 0V.057998659H.29899598V.6777344H.2789917C.21998596 .6166992 .13699341 .6137085 .08898926 .6117096V.55371096C.12199402 .55470278 .16999817 .55670168 .21998596 .57769778V.057998659H.09498596V0H.42399598Z"/>
<path id="font_1_75" d="M.71299746 0V.29804994C.71299746 .36506654 .69699099 .45507813 .57598879 .45507813 .5159912 .45507813 .46398927 .427063 .4269867 .37306214 .40098573 .44906617 .33099366 .45507813 .29899598 .45507813 .22698975 .45507813 .17999268 .41407777 .15299988 .37806703V.45007325H.08099365V0H.15899658V.2450409C.15899658 .31304933 .18598938 .3940735 .2599945 .3940735 .35299684 .3940735 .35798646 .3290558 .35798646 .29104615V0H.43598939V.2450409C.43598939 .31304933 .46299745 .3940735 .5369873 .3940735 .6299896 .3940735 .6349945 .3290558 .6349945 .29104615V0H.71299746Z"/>
<path id="font_1_62" d="M.61299136 0V.69433596H.5239868V.3910675H.18299866V.69433596H.09399414V0H.18299866V.33007813H.5239868V0H.61299136Z"/>
<path id="font_1_107" d="M.44898988 0V.070999149H.2669983C.25498963 .070999149 .24299622 .069992069 .23098755 .069992069H.12199402C.1539917 .09794617 .22999573 .17280579 .26098634 .20178223 .27999879 .2197876 .33099366 .2617798 .34999085 .27978517 .394989 .32476808 .44898988 .37776185 .44898988 .4627533 .44898988 .5777283 .36799623 .6777344 .23599243 .6777344 .12199402 .6777344 .06599426 .59973147 .041992189 .51374819 .053985597 .49674989 .05899048 .49075318 .06098938 .4877472 .06298828 .4857483 .07299805 .4727478 .08299255 .4587555 .102996829 .5357361 .1309967 .61372378 .22200012 .61372378 .31599427 .61372378 .36698915 .53874209 .36698915 .4607544 .36698915 .37576295 .30999757 .31877137 .25099183 .25878907L.17399597 .18777466 .049987794 .06399536V0H.44898988Z"/>
<path id="font_2_1" d="M.23098755 .35134889C.23599243 .37236024 .24598694 .41036988 .24598694 .41537477 .24598694 .43237306 .23399353 .4423828 .21699524 .4423828 .21398926 .4423828 .18598938 .44137574 .1769867 .40637208L.032989503-.17282105C.02999878-.18482971 .02999878-.18682862 .02999878-.18882752 .02999878-.2038269 .040985109-.21582031 .057998659-.21582031 .07899475-.21582031 .09098816-.1978302 .09298706-.19482422 .09700012-.18582154 .10998535-.13380432 .147995 .020248414 .17999268-.0067443849 .22499085-.0107421879 .24499512-.0107421879 .31498719-.0107421879 .35398866 .03425598 .37799073 .06227112 .3869934 .01725769 .42399598-.0107421879 .46798707-.0107421879 .5029907-.0107421879 .526001 .012252808 .5419922 .044265748 .5589905 .08027649 .57199099 .14129639 .57199099 .14329529 .57199099 .1532898 .5629883 .1532898 .55999758 .1532898 .5499878 .1532898 .548996 .14929199 .54599 .13528443 .5289917 .07026672 .5109863 .011245728 .46998597 .011245728 .44299317 .011245728 .43998719 .037261964 .43998719 .057266237 .43998719 .07926941 .45199586 .12628174 .45999146 .16130066L.48799134 .2693329C.4909973 .28433229 .5009918 .32234193 .5049896 .3373413 .5099945 .36035157 .519989 .3983612 .519989 .40437318 .519989 .42237855 .5059967 .43138124 .4909973 .43138124 .48599244 .43138124 .45999146 .43037416 .45199586 .3963623L.40499879 .20930481C.3929901 .15930176 .38198854 .11727905 .3789978 .107284549 .37799073 .10227966 .32998658 .011245728 .24899292 .011245728 .19898987 .011245728 .1749878 .044265748 .1749878 .09828186 .1749878 .12728882 .18199158 .1552887 .18899536 .18330384L.23098755 .35134889Z"/>
<path id="font_1_54" d="M.526001 .6263275V.69132998H.09399414V0H.18299866V.31497193H.4850006V.37597657H.18299866V.6273346H.31399537C.32598878 .6273346 .33799745 .6263275 .34999085 .6263275H.526001Z"/>
<path id="font_1_28" d="M.40899659 .00024414063V.28903199C.40899659 .39094544 .33599855 .4609375 .24398804 .4609375 .1789856 .4609375 .13398743 .44493104 .08699036 .41792298L.09298706 .3519745C.14498902 .38894654 .19499207 .40193177 .24398804 .40193177 .29100038 .40193177 .33099366 .361969 .33099366 .2880249V.24505615C.18099976 .24305725 .053985597 .20106507 .053985597 .11317444 .053985597 .07022095 .08099365-.0107421879 .16799927-.0107421879 .18199158-.0107421879 .27598573-.008743286 .33399964 .036254884V.00024414063H.40899659M.33099366 .13214112C.33099366 .11317444 .33099366 .0881958 .29699708 .069229129 .2679901 .051254274 .22999573 .050247194 .21899414 .050247194 .17098999 .050247194 .12599182 .07322693 .12599182 .11515808 .12599182 .18507385 .28799439 .19206238 .33099366 .19406128V.13214112Z"/>
<path id="font_1_35" d="M.47999574 .22306824C.47999574 .34707643 .4119873 .45507813 .31799317 .45507813 .2789917 .45503236 .21699524 .44500733 .15699768 .39595033V.69433596H.08198547V-.000045776369L.1599884 .00024414063V.04624939C.18399048 .024246216 .22698975-.0107421879 .2939911-.0107421879 .3939972-.0107421879 .47999574 .08920288 .47999574 .22306824M.4019928 .22306824C.4019928 .09320068 .31799317 .050247194 .25698854 .050247194 .21798706 .050247194 .18499756 .068237308 .1599884 .11418152V.33496095C.17599488 .35906983 .21199036 .3940735 .2669983 .3940735 .32598878 .3940735 .4019928 .35107423 .4019928 .22306824Z"/>
</defs>
<path transform="matrix(1,0,0,-1.00005,43.682,145.12445)" stroke-width=".3985" stroke-linecap="butt" stroke-miterlimit="10" stroke-linejoin="miter" fill="none" stroke="#000000" d="M0 141.73404V82.77272M0 58.96129V0"/>
<use data-text="+" xlink:href="#font_1_89" transform="matrix(9.9626,0,0,-9.963098,32.411005,12.711838)"/>
<path transform="matrix(1,0,0,-1.00005,43.682,145.12445)" stroke-width=".797" stroke-linecap="butt" stroke-miterlimit="10" stroke-linejoin="miter" fill="none" stroke="#000000" d="M11.90572 70.867C11.90572 77.44243 6.57541 82.77272 0 82.77272-6.57541 82.77272-11.90572 77.44243-11.90572 70.867-11.90572 64.2916-6.57541 58.96129 0 58.96129 6.57541 58.96129 11.90572 64.2916 11.90572 70.867ZM0 70.867"/>
<path transform="matrix(1,0,0,-1.00005,43.682,145.12445)" stroke-width=".797" stroke-linecap="butt" stroke-miterlimit="10" stroke-linejoin="miter" fill="none" stroke="#000000" d="M-5.95285 70.867C-4.98253 72.39091-4.0539 73.84343-2.97643 73.84343-1.89896 73.84343-.97032 72.39093 0 70.867 .9703 69.34311 1.89894 67.89058 2.97643 67.89058 4.05388 67.89058 4.98251 69.3431 5.95285 70.867"/>
<use data-text="i" xlink:href="#font_2_2" transform="matrix(9.9626,0,0,-9.963098,1.5060043,76.40102)"/>
<use data-text="A" xlink:href="#font_3_1" transform="matrix(6.9738,0,0,-6.9741489,4.9390108,77.89609)"/>
<use data-text="C" xlink:href="#font_3_2" transform="matrix(6.9738,0,0,-6.9741489,10.929504,77.89609)"/>
<use data-text="p" xlink:href="#font_4_1" transform="matrix(9.9626,0,0,-9.963098,17.631012,76.40102)"/>
<use data-text="t" xlink:href="#font_2_3" transform="matrix(9.9626,0,0,-9.963098,21.504014,76.40102)"/>
<use data-text="q" xlink:href="#font_4_2" transform="matrix(9.9626,0,0,-9.963098,25.10202,76.40102)"/>
<path transform="matrix(1,0,0,-1.00005,43.682,145.12445)" stroke-width=".3985" stroke-linecap="butt" stroke-miterlimit="10" stroke-linejoin="miter" fill="none" stroke="#000000" d="M0 141.73404 70.867 141.73403M70.867 141.73403 141.73404 141.73404"/>
<path transform="matrix(1,0,0,-1.00005,43.682,145.12445)" stroke-width=".3985" stroke-linecap="butt" stroke-miterlimit="10" stroke-linejoin="miter" fill="none" stroke="#000000" d="M70.867 141.73404 70.86699 122.1747M70.86699 90.42632 70.867 70.867"/>
<path transform="matrix(1,0,0,-1.00005,43.682,145.12445)" stroke-width=".797" stroke-linecap="butt" stroke-linejoin="bevel" fill="none" stroke="#000000" d="M70.86699 122.57321 76.81984 119.529 64.91414 114.23763 76.81984 108.94624 64.91414 103.65486 76.81984 98.36348 64.91414 93.0721 70.86699 90.02791"/>
<path transform="matrix(1,0,0,-1.00005,43.682,145.12445)" d="M72.45416 141.73404C72.45416 142.6106 71.74358 143.32118 70.867 143.32118 69.99045 143.32118 69.27986 142.6106 69.27986 141.73404 69.27986 140.85749 69.99045 140.1469 70.867 140.1469 71.74358 140.1469 72.45416 140.85749 72.45416 141.73404ZM70.867 141.73404"/>
<path transform="matrix(1,0,0,-1.00005,43.682,145.12445)" stroke-width=".3985" stroke-linecap="butt" stroke-miterlimit="10" stroke-linejoin="miter" fill="none" stroke="#000000" d="M72.45416 141.73404C72.45416 142.6106 71.74358 143.32118 70.867 143.32118 69.99045 143.32118 69.27986 142.6106 69.27986 141.73404 69.27986 140.85749 69.99045 140.1469 70.867 140.1469 71.74358 140.1469 72.45416 140.85749 72.45416 141.73404ZM70.867 141.73404"/>
<use data-text="5" xlink:href="#font_1_56" transform="matrix(9.9626,0,0,-9.963098,85.915,40.96525)"/>
<use data-text="0" xlink:href="#font_1_121" transform="matrix(9.9626,0,0,-9.963098,90.8963,40.96525)"/>
<use data-text="&#x2126;" xlink:href="#font_5_1" transform="matrix(9.9626,0,0,-9.963098,99.19501,40.96525)"/>
<path transform="matrix(1,0,0,-1.00005,43.682,145.12445)" stroke-width=".3985" stroke-linecap="butt" stroke-miterlimit="10" stroke-linejoin="miter" fill="none" stroke="#000000" d="M70.867 70.867 70.86699 47.33922M70.86699 23.52777 70.867 0"/>
<path transform="matrix(1,0,0,-1.00005,43.682,145.12445)" stroke-width=".797" stroke-linecap="butt" stroke-linejoin="bevel" fill="none" stroke="#000000" d="M70.7076 47.73772C73.9953 47.73772 76.66045 46.10297 76.66045 44.08636 76.66045 42.06976 73.9953 40.43501 70.7076 40.43501 69.06384 40.43501 67.73132 41.10127 67.73132 41.92316 67.73132 42.74504 69.06384 43.4113 70.7076 43.4113 73.9953 43.4113 76.66045 41.77655 76.66045 39.75995 76.66045 37.74335 73.9953 36.1086 70.7076 36.1086 69.06384 36.1086 67.73132 36.77486 67.73132 37.59674 67.73132 38.41861 69.06384 39.08487 70.7076 39.08487 73.9953 39.08487 76.66045 37.45013 76.66045 35.43352 76.66045 33.41692 73.9953 31.78218 70.7076 31.78218 69.06384 31.78218 67.73132 32.44843 67.73132 33.27031 67.73132 34.0922 69.06384 34.75845 70.7076 34.75845 73.9953 34.75845 76.66045 33.1237 76.66045 31.1071 76.66045 29.0905 73.9953 27.45575 70.7076 27.45575 69.06384 27.45575 67.73132 28.12201 67.73132 28.9439 67.73132 29.76578 69.06384 30.43202 70.7076 30.43202 73.9953 30.43202 76.66045 28.79729 76.66045 26.78069 76.66045 24.76407 73.9953 23.12933 70.7076 23.12933"/>
<path transform="matrix(1,0,0,-1.00005,43.682,145.12445)" d="M72.45416 0C72.45416 .87656 71.74358 1.58714 70.867 1.58714 69.99045 1.58714 69.27986 .87656 69.27986 0 69.27986-.87656 69.99045-1.58714 70.867-1.58714 71.74358-1.58714 72.45416-.87656 72.45416 0ZM70.867 0"/>
<path transform="matrix(1,0,0,-1.00005,43.682,145.12445)" stroke-width=".3985" stroke-linecap="butt" stroke-miterlimit="10" stroke-linejoin="miter" fill="none" stroke="#000000" d="M72.45416 0C72.45416 .87656 71.74358 1.58714 70.867 1.58714 69.99045 1.58714 69.27986 .87656 69.27986 0 69.27986-.87656 69.99045-1.58714 70.867-1.58714 71.74358-1.58714 72.45416-.87656 72.45416 0ZM70.867 0"/>
<use data-text="1" xlink:href="#font_1_82" transform="matrix(9.9626,0,0,-9.963098,81.42,111.835788)"/>
<use data-text="0" xlink:href="#font_1_121" transform="matrix(9.9626,0,0,-9.963098,86.4013,111.835788)"/>
<use data-text="m" xlink:href="#font_1_75" transform="matrix(9.9626,0,0,-9.963098,94.70014,111.835788)"/>
<use data-text="H" xlink:href="#font_1_62" transform="matrix(9.9626,0,0,-9.963098,102.61045,111.835788)"/>
<path transform="matrix(1,0,0,-1.00005,43.682,145.12445)" stroke-width=".3985" stroke-linecap="butt" stroke-miterlimit="10" stroke-linejoin="miter" fill="none" stroke="#000000" d="M141.73404 141.73404 141.73403 110.26898M141.73403 102.33203 141.73404 70.867"/>
<path transform="matrix(1,0,0,-1.00005,43.682,145.12445)" stroke-width=".797" stroke-linecap="butt" stroke-miterlimit="10" stroke-linejoin="miter" fill="none" stroke="#000000" d="M153.63974 110.26898H129.82831M153.63974 102.33203H129.82831"/>
<use data-text="2" xlink:href="#font_1_107" transform="matrix(9.9626,0,0,-9.963098,150.739,40.96525)"/>
<use data-text="&#x00b5;" xlink:href="#font_2_1" transform="matrix(9.9626,0,0,-9.963098,159.038,40.96525)"/>
<use data-text="F" xlink:href="#font_1_54" transform="matrix(9.9626,0,0,-9.963098,165.04102,40.96525)"/>
<path transform="matrix(1,0,0,-1.00005,43.682,145.12445)" stroke-width=".3985" stroke-linecap="butt" stroke-miterlimit="10" stroke-linejoin="miter" fill="none" stroke="#000000" d="M141.73404 70.867 141.73403 51.3077M141.73403 19.5593 141.73404 0"/>
<path transform="matrix(1,0,0,-1.00005,43.682,145.12445)" stroke-width=".797" stroke-linecap="butt" stroke-linejoin="bevel" fill="none" stroke="#000000" d="M141.73403 51.70619 147.68688 48.662 135.78118 43.37062 147.68688 38.07922 135.78118 32.78784 147.68688 27.49646 135.78118 22.20508 141.73403 19.16089"/>
<path transform="matrix(1,0,0,-1.00005,43.682,145.12445)" d="M143.32118 70.867C143.32118 71.74358 142.6106 72.45416 141.73404 72.45416 140.85749 72.45416 140.1469 71.74358 140.1469 70.867 140.1469 69.99045 140.85749 69.27986 141.73404 69.27986 142.6106 69.27986 143.32118 69.99045 143.32118 70.867ZM141.73404 70.867"/>
<path transform="matrix(1,0,0,-1.00005,43.682,145.12445)" stroke-width=".3985" stroke-linecap="butt" stroke-miterlimit="10" stroke-linejoin="miter" fill="none" stroke="#000000" d="M143.32118 70.867C143.32118 71.74358 142.6106 72.45416 141.73404 72.45416 140.85749 72.45416 140.1469 71.74358 140.1469 70.867 140.1469 69.99045 140.85749 69.27986 141.73404 69.27986 142.6106 69.27986 143.32118 69.99045 143.32118 70.867ZM141.73404 70.867"/>
<path transform="matrix(1,0,0,-1.00005,43.682,145.12445)" d="M143.32118 0C143.32118 .87656 142.6106 1.58714 141.73404 1.58714 140.85749 1.58714 140.1469 .87656 140.1469 0 140.1469-.87656 140.85749-1.58714 141.73404-1.58714 142.6106-1.58714 143.32118-.87656 143.32118 0ZM141.73404 0"/>
<path transform="matrix(1,0,0,-1.00005,43.682,145.12445)" stroke-width=".3985" stroke-linecap="butt" stroke-miterlimit="10" stroke-linejoin="miter" fill="none" stroke="#000000" d="M143.32118 0C143.32118 .87656 142.6106 1.58714 141.73404 1.58714 140.85749 1.58714 140.1469 .87656 140.1469 0 140.1469-.87656 140.85749-1.58714 141.73404-1.58714 142.6106-1.58714 143.32118-.87656 143.32118 0ZM141.73404 0"/>
<use data-text="1" xlink:href="#font_1_82" transform="matrix(9.9626,0,0,-9.963098,151.801,111.835788)"/>
<use data-text="0" xlink:href="#font_1_121" transform="matrix(9.9626,0,0,-9.963098,156.7823,111.835788)"/>
<use data-text="0" xlink:href="#font_1_121" transform="matrix(9.9626,0,0,-9.963098,161.7636,111.835788)"/>
<use data-text="&#x2126;" xlink:href="#font_5_1" transform="matrix(9.9626,0,0,-9.963098,170.063,111.835788)"/>
<path transform="matrix(1,0,0,-1.00005,43.682,145.12445)" stroke-width=".3985" stroke-linecap="butt" stroke-miterlimit="10" stroke-linejoin="miter" fill="none" stroke="#000000" d="M141.73404 70.867 155.90744 70.86699M155.90744 70.86699 170.08086 70.867"/>
<path transform="matrix(1,0,0,-1.00005,43.682,145.12445)" d="M171.668 70.867C171.668 71.74358 170.95742 72.45416 170.08086 72.45416 169.20429 72.45416 168.4937 71.74358 168.4937 70.867 168.4937 69.99045 169.20429 69.27986 170.08086 69.27986 170.95742 69.27986 171.668 69.99045 171.668 70.867ZM170.08086 70.867" fill="#ffffff"/>
<path transform="matrix(1,0,0,-1.00005,43.682,145.12445)" stroke-width=".3985" stroke-linecap="butt" stroke-miterlimit="10" stroke-linejoin="miter" fill="none" stroke="#000000" d="M171.668 70.867C171.668 71.74358 170.95742 72.45416 170.08086 72.45416 169.20429 72.45416 168.4937 71.74358 168.4937 70.867 168.4937 69.99045 169.20429 69.27986 170.08086 69.27986 170.95742 69.27986 171.668 69.99045 171.668 70.867ZM170.08086 70.867"/>
<path transform="matrix(1,0,0,-1.00005,43.682,145.12445)" d="" fill="#ffffff"/>
<path transform="matrix(1,0,0,-1.00005,43.682,145.12445)" stroke-width=".3985" stroke-linecap="butt" stroke-miterlimit="10" stroke-linejoin="miter" fill="none" stroke="#000000" d=""/>
<use data-text="a" xlink:href="#font_1_28" transform="matrix(9.9626,0,0,-9.963098,217.28299,76.496028)"/>
<path transform="matrix(1,0,0,-1.00005,43.682,145.12445)" stroke-width=".3985" stroke-linecap="butt" stroke-miterlimit="10" stroke-linejoin="miter" fill="none" stroke="#000000" d="M0 0H85.04042M85.04042 0H170.08086"/>
<path transform="matrix(1,0,0,-1.00005,43.682,145.12445)" d="M171.668 0C171.668 .87656 170.95742 1.58714 170.08086 1.58714 169.20429 1.58714 168.4937 .87656 168.4937 0 168.4937-.87656 169.20429-1.58714 170.08086-1.58714 170.95742-1.58714 171.668-.87656 171.668 0ZM170.08086 0" fill="#ffffff"/>
<path transform="matrix(1,0,0,-1.00005,43.682,145.12445)" stroke-width=".3985" stroke-linecap="butt" stroke-miterlimit="10" stroke-linejoin="miter" fill="none" stroke="#000000" d="M171.668 0C171.668 .87656 170.95742 1.58714 170.08086 1.58714 169.20429 1.58714 168.4937 .87656 168.4937 0 168.4937-.87656 169.20429-1.58714 170.08086-1.58714 170.95742-1.58714 171.668-.87656 171.668 0ZM170.08086 0"/>
<path transform="matrix(1,0,0,-1.00005,43.682,145.12445)" d="" fill="#ffffff"/>
<path transform="matrix(1,0,0,-1.00005,43.682,145.12445)" stroke-width=".3985" stroke-linecap="butt" stroke-miterlimit="10" stroke-linejoin="miter" fill="none" stroke="#000000" d=""/>
<use data-text="b" xlink:href="#font_1_35" transform="matrix(9.9626,0,0,-9.963098,217.28299,148.52663)"/>
</svg>
