<svg xmlns="http://www.w3.org/2000/svg" xmlns:xlink="http://www.w3.org/1999/xlink" xmlns:inkscape="http://www.inkscape.org/namespaces/inkscape" version="1.1" width="310" height="134" viewBox="0 0 310 134">
<defs>
<path id="font_1_1" d="M.35699464 .29231263C.397995 .18730164 .44599916 .034301759 .46199037 .011291504 .47799684-.010696411 .48799134-.010696411 .5149994-.010696411H.5369873C.5469971-.00970459 .5479889-.0037078858 .5479889-.0007019043 .5479889 .0023040772 .54599 .0043029787 .54299929 .008300781 .5329895 .019302369 .5269928 .034301759 .519989 .05430603L.31599427 .62332156C.29499818 .68133547 .24099732 .69433596 .19400025 .69433596 .18899536 .69433596 .17599488 .69433596 .17599488 .68333438 .17599488 .6753235 .18399048 .6733246 .18499756 .6733246 .21798706 .6673279 .22499085 .6613312 .25 .59332278L.34700013 .32130433 .070999149 .047302247C.05899048 .03529358 .052993776 .029296875 .052993776 .016296387 .052993776-.0007019043 .066986087-.0126953129 .08299255-.0126953129 .09899902-.0126953129 .10798645-.0017089844 .115997318 .008300781L.35699464 .29231263Z"/>
<path id="font_2_2" d="M.08999634 .269989C.08699036 .2689972 .084991458 .2669983 .083999637 .2639923 .08299255 .26098634 .08299255 .25698854 .08299255 .2539978 .08299255 .24598694 .08198547 .23599243 .08999634 .23199463 .09700012 .22898865 .10798645 .23098755 .115997318 .23098755H.1749878 .5479889 .6539917 .6779938C.68299868 .23098755 .6879883 .23098755 .69099429 .23498535 .69499209 .23799134 .69499209 .24299622 .69499209 .24798584 .69499209 .2559967 .69599917 .2679901 .6859894 .269989 .6819916 .2709961 .6769867 .2709961 .6729889 .2709961H.6489868 .57199099 .22999573 .13198853 .10499573C.099990848 .2709961 .09498596 .27198792 .08999634 .269989Z"/>
<path id="font_1_2" d="M.2939911 .37265016H.46199037C.47499085 .37265016 .5109863 .37265016 .5109863 .406662 .5109863 .43066407 .48999024 .43066407 .47099305 .43066407H.19099427C.17098999 .43066407 .13198853 .43066407 .08799744 .38365174 .054992677 .34770204 .026992798 .29977418 .026992798 .29379273 .026992798 .29278565 .026992798 .28381349 .038986207 .28381349 .04699707 .28381349 .04899597 .28779603 .054992677 .29579164 .10398865 .37265016 .16099549 .37265016 .18199158 .37265016H.2649994L.16699219 .052200319C.16299439 .040222169 .15699768 .019256592 .15699768 .015258789 .15699768 .004272461 .1639862-.01171875 .18598938-.01171875 .21899414-.01171875 .22399903 .01626587 .22698975 .031234742L.2939911 .37265016Z"/>
<path id="font_2_1" d="M.36898805 .2709961H.1519928 .100997928C.09399414 .2709961 .085998538 .269989 .083999637 .2619934 .08198547 .2539978 .08099365 .23799134 .08799744 .23298645 .09298706 .22999573 .099990848 .23098755 .10598755 .23098755H.14698792 .36898805V.0129852299C.36898805-.0040130617 .36898805-.020004273 .36898805-.037002565 .36898805-.044006349 .36999513-.052001954 .37799073-.054000856 .3849945-.056015016 .40098573-.057006837 .4059906-.05101013 .4099884-.04600525 .40899659-.038009645 .40899659-.03201294V.008987427 .23098755H.6259918 .6769867C.6839905 .23098755 .69200137 .23199463 .69400027 .23999024 .69599917 .24798584 .69699099 .2639923 .6899872 .2689972 .68499758 .27198792 .6779938 .2709961 .6719971 .2709961H.6309967 .40899659V.49299623 .5339966C.40899659 .5399933 .4099884 .5479889 .4059906 .5529938 .40098573 .5589905 .3849945 .55799868 .37799073 .55599978 .36999513 .55400088 .36898805 .54599 .36898805 .5389862 .36898805 .5219879 .36898805 .5059967 .36898805 .4889984V.2709961Z"/>
<path id="font_3_121" d="M.45700074 .32554627C.45700074 .4045868 .45298768 .49765016 .41099549 .57870486 .36999513 .6537323 .30099488 .6777344 .25 .6777344 .19099427 .6777344 .12098694 .6507263 .07998657 .5616913 .04699707 .48864747 .041992189 .40559388 .041992189 .32554627 .041992189 .24649048 .04598999 .17344666 .07598877 .10043335 .115997318 .0045318605 .19198609-.022460938 .24899292-.022460938 .32199098-.022460938 .3849945 .01852417 .4169922 .08743286 .44699098 .1524353 .45700074 .21847534 .45700074 .32554627M.3789978 .33755494C.3789978 .27149964 .3789978 .20846558 .36099244 .14543152 .33499146 .054504396 .28199769 .038528444 .25 .038528444 .19799805 .038528444 .15699768 .07644653 .13699341 .1484375 .12098694 .20599365 .11999512 .2599945 .11999512 .33799745 .11999512 .40072633 .11999512 .46072389 .13699341 .5157318 .14299011 .534729 .16799927 .61672976 .24899292 .61672976 .32699586 .61672976 .35299684 .5407257 .3600006 .52272036 .3789978 .46672059 .3789978 .39971925 .3789978 .33772279V.33755494Z"/>
<path id="font_1_3" d="M.1789856 .114868167C.13899231 .047973634 .099990848 .033981325 .055999757 .0309906 .04399109 .02999878 .034988405 .02999878 .034988405 .010986328 .034988405 .004989624 .039993287 0 .04798889 0 .07499695 0 .10598755 .0029907227 .13398743 .0029907227 .16699219 .0029907227 .20199585 0 .23399353 0 .23999024 0 .25299073 0 .25299073 .018997193 .25299073 .02999878 .24398804 .0309906 .23699951 .0309906 .21398926 .032989503 .18998719 .04096985 .18998719 .06593323 .18998719 .077926639 .19599915 .088897708 .20399475 .102890018L.27999879 .23068238H.5309906C.5329895 .2097168 .5469971 .07392883 .5469971 .063949588 .5469971 .033981325 .49499513 .0309906 .47499085 .0309906 .46099855 .0309906 .45098878 .0309906 .45098878 .010986328 .45098878 0 .46299745 0 .46499635 0 .5059967 0 .548996 .0029907227 .58999636 .0029907227 .61499026 .0029907227 .6779938 0 .7029877 0 .70899966 0 .72099307 0 .72099307 .019989014 .72099307 .0309906 .71099856 .0309906 .69799807 .0309906 .6359863 .0309906 .6359863 .037979127 .6329956 .06694031L.57199099 .691803C.56999209 .71180728 .56999209 .7158203 .5529938 .7158203 .5369873 .7158203 .5329895 .7088165 .5269928 .69880679L.1789856 .114868167M.29899598 .26168824 .49598695 .5917816 .5279999 .26168824H.29899598Z"/>
<clipPath id="clip_4">
<path transform="matrix(1.00008,0,0,-1.00009,14.336952,102.23303)" d="M0 0H293.8968V96.90044H0Z"/>
</clipPath>
<path id="font_1_4" d="M.20599365 .3996582H.2999878C.31999208 .3996582 .32998658 .3996582 .32998658 .41966249 .32998658 .43066407 .31999208 .43066407 .3019867 .43066407H.21398926C.25 .5724945 .25498963 .59246829 .25498963 .59846499 .25498963 .61546328 .24299622 .62545779 .22599793 .62545779 .22299195 .62545779 .19499207 .62446597 .18598938 .58947756L.14698792 .43066407H.052993776C.032989503 .43066407 .022994996 .43066407 .022994996 .4116516 .022994996 .3996582 .0309906 .3996582 .050994874 .3996582H.13899231C.066986087 .11608887 .06298828 .099121097 .06298828 .08114624 .06298828 .02722168 .100997928-.0107421879 .15499878-.0107421879 .25698854-.0107421879 .31399537 .13505554 .31399537 .14305115 .31399537 .1530304 .30599977 .1530304 .3019867 .1530304 .29299928 .1530304 .2919922 .15003968 .2869873 .13905335 .24398804 .035217287 .19099427 .011245728 .15699768 .011245728 .13598633 .011245728 .12599182 .024230957 .12599182 .057174684 .12599182 .08114624 .12799073 .088134769 .13198853 .10510254L.20599365 .3996582Z"/>
<path id="font_3_85" d="M.33198548-.25C.28399659-.20201111 .15699768-.073013309 .15699768 .25 .15699768 .30599977 .1599884 .4229889 .20098877 .54100039 .24198914 .6569977 .29899598 .71699526 .33198548 .75H.2709961C.23899842 .7200012 .17199707 .6589966 .12599182 .5359955 .085998538 .42900086 .07899475 .32299806 .07899475 .25 .07899475-.073013309 .22299195-.20600891 .2709961-.25H.33198548Z"/>
<path id="font_3_98" d="M.3600006 .12817383C.3600006 .18313599 .32299806 .21710205 .32099916 .22009278 .28199769 .25506593 .25498963 .26106263 .20498657 .27005006 .1499939 .28103639 .10398865 .29103089 .10398865 .33998109 .10398865 .40193177 .17599488 .40193177 .18899536 .40193177 .22099304 .40193177 .27398683 .39793397 .33099366 .3639679L.34298707 .42892457C.29100038 .45292665 .25 .4609375 .19898987 .4609375 .17399597 .4609375 .032989503 .4609375 .032989503 .32998658 .032989503 .28103639 .06199646 .24906922 .08699036 .23008728 .117996219 .20809937 .13999939 .20411682 .19499207 .19311524 .23098755 .18612671 .2889862 .1741333 .2889862 .1211853 .2889862 .052246095 .20999146 .052246095 .19499207 .052246095 .11399841 .052246095 .057998659 .08921814 .039993287 .10121155L.027999878 .0332489C.05999756 .01725769 .114990238-.0107421879 .19599915-.0107421879 .21398926-.0107421879 .2689972-.0107421879 .31199647 .021255494 .34298707 .04525757 .3600006 .08522034 .3600006 .12817383Z"/>
<path id="font_3_86" d="M.30899049 .25C.30899049 .57299807 .16499329 .70599368 .116989139 .75H.055999757C.10398865 .70199587 .23098755 .57299807 .23098755 .25 .23098755 .19400025 .22799683 .07699585 .18699646-.041000368 .1459961-.15701294 .08898926-.2170105 .055999757-.25H.116989139C.14898682-.22000122 .21598816-.15901184 .2619934-.036010744 .3019867 .070999149 .30899049 .1769867 .30899049 .25Z"/>
</defs>
<path transform="matrix(1.00008,0,0,-1.00009,14.336952,102.23303)" stroke-width=".19925" stroke-linecap="butt" stroke-miterlimit="10" stroke-linejoin="miter" fill="none" stroke="#7f807f" d="M73.4742-2.12592V2.12592M146.9484-2.12592V2.12592M220.42259-2.12592V2.12592"/>
<path transform="matrix(1.00008,0,0,-1.00009,14.336952,102.23303)" stroke-width=".19925" stroke-linecap="butt" stroke-miterlimit="10" stroke-linejoin="miter" fill="none" stroke="#7f807f" d="M-2.12593 0H2.12593M-2.12593 96.90044H2.12593"/>
<path transform="matrix(1.00008,0,0,-1.00009,14.336952,102.23303)" stroke-width=".3985" stroke-linecap="butt" stroke-miterlimit="10" stroke-linejoin="miter" fill="none" stroke="#000000" d="M0 0H291.90428"/>
<path transform="matrix(1.00008,0,0,-1.00009,306.26457,102.23303)" d="M1.99252 0-1.19551 1.59401 0 0-1.19551-1.59401"/>
<path transform="matrix(1.00008,0,0,-1.00009,14.336952,102.23303)" stroke-width=".3985" stroke-linecap="butt" stroke-miterlimit="10" stroke-linejoin="miter" fill="none" stroke="#000000" d="M0 0V94.90791"/>
<path transform="matrix(0,-1.00009,-1.00008,-0,14.336952,7.316574)" d="M1.99252 0-1.19551 1.59401 0 0-1.19551-1.59401"/>
<use data-text="&#x03bb;" xlink:href="#font_1_1" transform="matrix(9.963397,0,0,-9.963496,76.081897,114.798168)"/>
<use data-text="&#x00b4;" xlink:href="#font_2_2" transform="matrix(9.963397,0,0,-9.963496,84.10754,114.798168)"/>
<use data-text="&#x03c4;" xlink:href="#font_1_2" transform="matrix(9.963397,0,0,-9.963496,94.06933,114.798168)"/>
<use data-text="&#x03bb;" xlink:href="#font_1_1" transform="matrix(9.963397,0,0,-9.963496,158.39148,114.798168)"/>
<use data-text="&#x03bb;" xlink:href="#font_1_1" transform="matrix(9.963397,0,0,-9.963496,223.04166,114.798168)"/>
<use data-text="`" xlink:href="#font_2_1" transform="matrix(9.963397,0,0,-9.963496,231.06729,114.798168)"/>
<use data-text="&#x03c4;" xlink:href="#font_1_2" transform="matrix(9.963397,0,0,-9.963496,241.02909,114.798168)"/>
<use data-text="0" xlink:href="#font_3_121" transform="matrix(9.963397,0,0,-9.963496,3.7090989,105.50133)"/>
<use data-text="A" xlink:href="#font_1_3" transform="matrix(9.963397,0,0,-9.963496,1.2179031,8.728615)"/>
<g clip-path="url(#clip_4)">
<path transform="matrix(1.00008,0,0,-1.00009,14.336952,102.23303)" stroke-width=".79701" stroke-linecap="butt" stroke-miterlimit="10" stroke-linejoin="miter" fill="none" stroke="#000000" d="M0 0H73.4742L146.9484 95.93144 220.42259 0H293.8968"/>
</g>
<use data-text="t" xlink:href="#font_1_4" transform="matrix(9.963397,0,0,-9.963496,152.05496,129.92552)"/>
<use data-text="(" xlink:href="#font_3_85" transform="matrix(9.963397,0,0,-9.963496,158.97052,129.92552)"/>
<use data-text="s" xlink:href="#font_3_98" transform="matrix(9.963397,0,0,-9.963496,162.84629,129.92552)"/>
<use data-text=")" xlink:href="#font_3_86" transform="matrix(9.963397,0,0,-9.963496,166.66226,129.92552)"/>
</svg>
