<svg xmlns="http://www.w3.org/2000/svg" xmlns:xlink="http://www.w3.org/1999/xlink" xmlns:inkscape="http://www.inkscape.org/namespaces/inkscape" version="1.1" width="186" height="77" viewBox="0 0 186 77">
<defs>
<path id="font_1_82" d="M.42399598 0V.057998659H.29899598V.6777344H.2789917C.21998596 .6166992 .13699341 .6137085 .08898926 .6117096V.55371096C.12199402 .55470278 .16999817 .55670168 .21998596 .57769778V.057998659H.09498596V0H.42399598Z"/>
<path id="font_1_88" d="M.17999268 0V.08299255H.09700012V0H.17999268Z"/>
<path id="font_1_56" d="M.44898988 .2028656C.44898988 .328125 .36299134 .42720033 .2599945 .42720033 .21998596 .42720033 .18199158 .41220094 .15299988 .38619996V.5922394H.41600038V.65625H.08099365V.28704835H.14698792C.1639862 .32711793 .20098877 .36621095 .25898744 .36621095 .30599977 .36621095 .3600006 .32511903 .3600006 .20487976 .3600006 .038528444 .23799134 .038528444 .22898865 .038528444 .1619873 .038528444 .100997928 .0776062 .07199097 .13172913L.038986207 .0756073C.07998657 .01852417 .14898682-.022460938 .22999573-.022460938 .34899903-.022460938 .44898988 .07661438 .44898988 .2028656Z"/>
<path id="font_1_70" d="M.47099305 0 .2809906 .27212525 .44898988 .4441986H.35899354L.1559906 .23609925V.69433596H.083999637V0H.15299988V.1410675L.23298645 .22410584 .3889923 0H.47099305Z"/>
<path id="font_2_1" d="M.6769867 .16200257H.6519928C.6469879 .13600159 .6429901 .11299133 .6339874 .08898926 .6289978 .07299805 .6259918 .06498718 .56799319 .06498718H.48799134C.5009918 .1210022 .5319977 .16900635 .57699587 .23501587 .6239929 .306015 .6649933 .37503053 .6649933 .45404054 .6649933 .59306338 .5299988 .7050781 .36099244 .7050781 .18899536 .7050781 .055999757 .5910492 .055999757 .45404054 .055999757 .37503053 .09700012 .306015 .14399719 .23501587 .18798828 .16900635 .21998596 .1210022 .23298645 .06498718H.15299988C.09498596 .06498718 .09199524 .07299805 .08699036 .08799744 .07899475 .11099243 .07398987 .13700867 .068984989 .16200257H.04399109L.07699585 0H.23699951C.25898744 0 .2619934 0 .2619934 .020996094 .2619934 .09098816 .23098755 .17900086 .20799256 .24301148 .18699646 .3010254 .15899658 .3800354 .15899658 .45503236 .15899658 .6150665 .2689972 .68307498 .3600006 .68307498 .45599366 .68307498 .56199648 .61105349 .56199648 .45503236 .56199648 .3800354 .5349884 .3040161 .5059967 .22201538 .4909973 .18000794 .45899964 .08999634 .45899964 .020996094 .45899964 0 .46199037 0 .4850006 0H.6439972L.6769867 .16200257Z"/>
<path id="font_1_107" d="M.44898988 0V.070999149H.2669983C.25498963 .070999149 .24299622 .069992069 .23098755 .069992069H.12199402C.1539917 .09794617 .22999573 .17280579 .26098634 .20178223 .27999879 .2197876 .33099366 .2617798 .34999085 .27978517 .394989 .32476808 .44898988 .37776185 .44898988 .4627533 .44898988 .5777283 .36799623 .6777344 .23599243 .6777344 .12199402 .6777344 .06599426 .59973147 .041992189 .51374819 .053985597 .49674989 .05899048 .49075318 .06098938 .4877472 .06298828 .4857483 .07299805 .4727478 .08299255 .4587555 .102996829 .5357361 .1309967 .61372378 .22200012 .61372378 .31599427 .61372378 .36698915 .53874209 .36698915 .4607544 .36698915 .37576295 .30999757 .31877137 .25099183 .25878907L.17399597 .18777466 .049987794 .06399536V0H.44898988Z"/>
<path id="font_1_106" d="M.45700074 .17964173C.45700074 .27072145 .3869934 .33276368 .31900025 .35375978 .394989 .39476014 .42999269 .4627533 .42999269 .5257416 .42999269 .61172488 .34700013 .6777344 .24798584 .6777344 .17098999 .6777344 .09799194 .63772585 .055999757 .56773379L.09199524 .51374819C.12098694 .583725 .18598938 .61972048 .24699402 .61972048 .29899598 .61972048 .34799195 .58973696 .34799195 .5257416 .34799195 .4647522 .30699159 .40576173 .24598694 .39175416 .23999024 .39076234 .23799134 .39076234 .16699219 .38476563V.323761H.23799134C.34599305 .323761 .36799623 .23068238 .36799623 .1806488 .36799623 .10258484 .32199098 .038528444 .24499512 .038528444 .17599488 .038528444 .09700012 .07356262 .052993776 .14161682L.041992189 .08155823C.114990238-.012466431 .20698548-.022460938 .24699402-.022460938 .36898805-.022460938 .45700074 .07455444 .45700074 .17964173Z"/>
<path id="font_1_57" d="M.47099305 .17089844V.23188782H.37199403V.65625H.2809906L.027999878 .23188782V.17089844H.29299928V0H.37199403V.17089844H.47099305M.29899598 .23188782H.10598755C.1579895 .31796266 .2979889 .5551605 .29899598 .6121979V.23188782Z"/>
<path id="font_3_1" d="M.23098755 .35134889C.23599243 .37236024 .24598694 .41036988 .24598694 .41537477 .24598694 .43237306 .23399353 .4423828 .21699524 .4423828 .21398926 .4423828 .18598938 .44137574 .1769867 .40637208L.032989503-.17282105C.02999878-.18482971 .02999878-.18682862 .02999878-.18882752 .02999878-.2038269 .040985109-.21582031 .057998659-.21582031 .07899475-.21582031 .09098816-.1978302 .09298706-.19482422 .09700012-.18582154 .10998535-.13380432 .147995 .020248414 .17999268-.0067443849 .22499085-.0107421879 .24499512-.0107421879 .31498719-.0107421879 .35398866 .03425598 .37799073 .06227112 .3869934 .01725769 .42399598-.0107421879 .46798707-.0107421879 .5029907-.0107421879 .526001 .012252808 .5419922 .044265748 .5589905 .08027649 .57199099 .14129639 .57199099 .14329529 .57199099 .1532898 .5629883 .1532898 .55999758 .1532898 .5499878 .1532898 .548996 .14929199 .54599 .13528443 .5289917 .07026672 .5109863 .011245728 .46998597 .011245728 .44299317 .011245728 .43998719 .037261964 .43998719 .057266237 .43998719 .07926941 .45199586 .12628174 .45999146 .16130066L.48799134 .2693329C.4909973 .28433229 .5009918 .32234193 .5049896 .3373413 .5099945 .36035157 .519989 .3983612 .519989 .40437318 .519989 .42237855 .5059967 .43138124 .4909973 .43138124 .48599244 .43138124 .45999146 .43037416 .45199586 .3963623L.40499879 .20930481C.3929901 .15930176 .38198854 .11727905 .3789978 .107284549 .37799073 .10227966 .32998658 .011245728 .24899292 .011245728 .19898987 .011245728 .1749878 .044265748 .1749878 .09828186 .1749878 .12728882 .18199158 .1552887 .18899536 .18330384L.23098755 .35134889Z"/>
<path id="font_1_62" d="M.61299136 0V.69433596H.5239868V.3910675H.18299866V.69433596H.09399414V0H.18299866V.33007813H.5239868V0H.61299136Z"/>
</defs>
<path transform="matrix(1.00006,0,0,-1.00009,36.78424,74.25925)" stroke-width=".3985" stroke-linecap="butt" stroke-miterlimit="10" stroke-linejoin="miter" fill="none" stroke="#000000" d="M0 70.867V51.3077M0 19.5593V0H141.73404"/>
<path transform="matrix(1.00006,0,0,-1.00009,36.78424,74.25925)" stroke-width=".797" stroke-linecap="butt" stroke-linejoin="bevel" fill="none" stroke="#000000" d="M0 51.70619 5.95285 48.662-5.95285 43.37062 5.95285 38.07922-5.95285 32.78784 5.95285 27.49646-5.95285 22.20508 0 19.16089"/>
<use data-text="1" xlink:href="#font_1_82" transform="matrix(9.963197,0,0,-9.963496,.50606539,40.969255)"/>
<use data-text="." xlink:href="#font_1_88" transform="matrix(9.963197,0,0,-9.963496,5.4876635,40.969255)"/>
<use data-text="5" xlink:href="#font_1_56" transform="matrix(9.963197,0,0,-9.963496,8.257431,40.969255)"/>
<use data-text="k" xlink:href="#font_1_70" transform="matrix(9.963197,0,0,-9.963496,16.546814,40.969255)"/>
<use data-text="&#x2126;" xlink:href="#font_2_1" transform="matrix(9.963197,0,0,-9.963496,21.42833,40.969255)"/>
<path transform="matrix(1.00006,0,0,-1.00009,36.78424,74.25925)" stroke-width=".3985" stroke-linecap="butt" stroke-miterlimit="10" stroke-linejoin="miter" fill="none" stroke="#000000" d="M0 70.867 70.867 70.86699M70.867 70.86699 141.73404 70.867"/>
<path transform="matrix(1.00006,0,0,-1.00009,36.78424,74.25925)" stroke-width=".3985" stroke-linecap="butt" stroke-miterlimit="10" stroke-linejoin="miter" fill="none" stroke="#000000" d="M70.867 70.867 70.86699 47.33922M70.86699 23.52777 70.867 0"/>
<path transform="matrix(1.00006,0,0,-1.00009,36.78424,74.25925)" stroke-width=".797" stroke-linecap="butt" stroke-linejoin="bevel" fill="none" stroke="#000000" d="M70.7076 47.73772C73.9953 47.73772 76.66045 46.10297 76.66045 44.08636 76.66045 42.06976 73.9953 40.43501 70.7076 40.43501 69.06384 40.43501 67.73132 41.10127 67.73132 41.92316 67.73132 42.74504 69.06384 43.4113 70.7076 43.4113 73.9953 43.4113 76.66045 41.77655 76.66045 39.75995 76.66045 37.74335 73.9953 36.1086 70.7076 36.1086 69.06384 36.1086 67.73132 36.77486 67.73132 37.59674 67.73132 38.41861 69.06384 39.08487 70.7076 39.08487 73.9953 39.08487 76.66045 37.45013 76.66045 35.43352 76.66045 33.41692 73.9953 31.78218 70.7076 31.78218 69.06384 31.78218 67.73132 32.44843 67.73132 33.27031 67.73132 34.0922 69.06384 34.75845 70.7076 34.75845 73.9953 34.75845 76.66045 33.1237 76.66045 31.1071 76.66045 29.0905 73.9953 27.45575 70.7076 27.45575 69.06384 27.45575 67.73132 28.12201 67.73132 28.9439 67.73132 29.76578 69.06384 30.43202 70.7076 30.43202 73.9953 30.43202 76.66045 28.79729 76.66045 26.78069 76.66045 24.76407 73.9953 23.12933 70.7076 23.12933"/>
<path transform="matrix(1.00006,0,0,-1.00009,36.78424,74.25925)" d="M72.45416 70.867C72.45416 71.74358 71.74358 72.45416 70.867 72.45416 69.99045 72.45416 69.27986 71.74358 69.27986 70.867 69.27986 69.99045 69.99045 69.27986 70.867 69.27986 71.74358 69.27986 72.45416 69.99045 72.45416 70.867ZM70.867 70.867"/>
<path transform="matrix(1.00006,0,0,-1.00009,36.78424,74.25925)" stroke-width=".3985" stroke-linecap="butt" stroke-miterlimit="10" stroke-linejoin="miter" fill="none" stroke="#000000" d="M72.45416 70.867C72.45416 71.74358 71.74358 72.45416 70.867 72.45416 69.99045 72.45416 69.27986 71.74358 69.27986 70.867 69.27986 69.99045 69.99045 69.27986 70.867 69.27986 71.74358 69.27986 72.45416 69.99045 72.45416 70.867ZM70.867 70.867"/>
<path transform="matrix(1.00006,0,0,-1.00009,36.78424,74.25925)" d="M72.45416 0C72.45416 .87656 71.74358 1.58714 70.867 1.58714 69.99045 1.58714 69.27986 .87656 69.27986 0 69.27986-.87656 69.99045-1.58714 70.867-1.58714 71.74358-1.58714 72.45416-.87656 72.45416 0ZM70.867 0"/>
<path transform="matrix(1.00006,0,0,-1.00009,36.78424,74.25925)" stroke-width=".3985" stroke-linecap="butt" stroke-miterlimit="10" stroke-linejoin="miter" fill="none" stroke="#000000" d="M72.45416 0C72.45416 .87656 71.74358 1.58714 70.867 1.58714 69.99045 1.58714 69.27986 .87656 69.27986 0 69.27986-.87656 69.99045-1.58714 70.867-1.58714 71.74358-1.58714 72.45416-.87656 72.45416 0ZM70.867 0"/>
<use data-text="2" xlink:href="#font_1_107" transform="matrix(9.963197,0,0,-9.963496,71.45032,40.969255)"/>
<use data-text="3" xlink:href="#font_1_106" transform="matrix(9.963197,0,0,-9.963496,76.431919,40.969255)"/>
<use data-text="4" xlink:href="#font_1_57" transform="matrix(9.963197,0,0,-9.963496,81.41353,40.969255)"/>
<use data-text="&#x00b5;" xlink:href="#font_3_1" transform="matrix(9.963197,0,0,-9.963496,89.71242,40.969255)"/>
<use data-text="H" xlink:href="#font_1_62" transform="matrix(9.963197,0,0,-9.963496,95.71579,40.969255)"/>
<path transform="matrix(1.00006,0,0,-1.00009,36.78424,74.25925)" stroke-width=".3985" stroke-linecap="butt" stroke-miterlimit="10" stroke-linejoin="miter" fill="none" stroke="#000000" d="M141.73404 70.867 141.73403 51.3077M141.73403 19.5593 141.73404 0"/>
<path transform="matrix(1.00006,0,0,-1.00009,36.78424,74.25925)" stroke-width=".797" stroke-linecap="butt" stroke-linejoin="bevel" fill="none" stroke="#000000" d="M141.73403 51.70619 147.68688 48.662 135.78118 43.37062 147.68688 38.07922 135.78118 32.78784 147.68688 27.49646 135.78118 22.20508 141.73403 19.16089"/>
<use data-text="3" xlink:href="#font_1_106" transform="matrix(9.963197,0,0,-9.963496,142.24857,40.969255)"/>
<use data-text="." xlink:href="#font_1_88" transform="matrix(9.963197,0,0,-9.963496,147.23017,40.969255)"/>
<use data-text="3" xlink:href="#font_1_106" transform="matrix(9.963197,0,0,-9.963496,149.99994,40.969255)"/>
<use data-text="k" xlink:href="#font_1_70" transform="matrix(9.963197,0,0,-9.963496,158.2893,40.969255)"/>
<use data-text="&#x2126;" xlink:href="#font_2_1" transform="matrix(9.963197,0,0,-9.963496,163.17084,40.969255)"/>
</svg>
