<svg xmlns="http://www.w3.org/2000/svg" xmlns:xlink="http://www.w3.org/1999/xlink" xmlns:inkscape="http://www.inkscape.org/namespaces/inkscape" version="1.1" width="197" height="100" viewBox="0 0 197 100">
<defs>
<path id="font_1_89" d="M.72099307 .25045777C.72099307 .27046205 .70199587 .27046205 .6879883 .27046205H.40899659V.5500488C.40899659 .5640259 .40899659 .5830078 .3889923 .5830078 .36898805 .5830078 .36898805 .5640259 .36898805 .5500488V.27046205H.08898926C.07499695 .27046205 .055999757 .27046205 .055999757 .25045777 .055999757 .23046875 .07499695 .23046875 .08898926 .23046875H.36898805V-.049972536C.36898805-.0639801 .36898805-.08300781 .3889923-.08300781 .40899659-.08300781 .40899659-.0639801 .40899659-.049972536V.23046875H.6879883C.70199587 .23046875 .72099307 .23046875 .72099307 .25045777Z"/>
<path id="font_2_3" d="M.46798707 .37236024C.46798707 .42637635 .44198609 .4423828 .42399598 .4423828 .39898683 .4423828 .375 .41636659 .375 .3943634 .375 .38136292 .37998963 .3753662 .3909912 .36434938 .4119873 .3443451 .4249878 .31834413 .4249878 .28233338 .4249878 .24032593 .3639984 .011245728 .24699402 .011245728 .19599915 .011245728 .17298889 .04626465 .17298889 .09828186 .17298889 .15429688 .19999695 .22731018 .23098755 .31033326 .23799134 .3273468 .24299622 .34135438 .24299622 .36035157 .24299622 .405365 .21099854 .4423828 .16099549 .4423828 .066986087 .4423828 .0289917 .29733277 .0289917 .28833009 .0289917 .27833558 .038986207 .27833558 .040985109 .27833558 .050994874 .27833558 .051986696 .28033448 .056991579 .29634095 .085998538 .39736939 .1289978 .42037965 .1579895 .42037965 .1659851 .42037965 .18299866 .42037965 .18299866 .3883667 .18299866 .36335755 .17298889 .3363495 .1659851 .31834413 .12199402 .20230103 .10899353 .15629578 .10899353 .11328125 .10899353 .0052490236 .19699097-.0107421879 .24299622-.0107421879 .41099549-.0107421879 .46798707 .32034303 .46798707 .37236024Z"/>
<path id="font_3_2" d="M.48599244 .6046295C.49299623 .63360598 .49499513 .63661196 .5169983 .63861086 .5219879 .63960269 .5569916 .63960269 .57699587 .63960269 .6380005 .63960269 .6639862 .63960269 .68899539 .63160708 .73399356 .61761477 .73599246 .5886383 .73599246 .5526581 .73599246 .53666689 .73599246 .52368167 .72898867 .4717102L.72698977 .46072389C.72698977 .45072938 .73399356 .4457245 .74398806 .4457245 .7589874 .4457245 .7609863 .45472718 .7630005 .47071839L.7899933 .66160586C.7899933 .6756134 .7779999 .6756134 .7599945 .6756134H.14498902C.11999512 .6756134 .117996219 .6756134 .11099243 .65460208L.04798889 .4777069C.04699707 .4737091 .042999269 .46472169 .042999269 .4597168 .042999269 .455719 .04499817 .4457245 .05999756 .4457245 .07299805 .4457245 .07499695 .45072938 .08099365 .4697113 .13899231 .62960818 .17199707 .63960269 .32398988 .63960269H.3659973C.3959961 .63960269 .39698792 .63861086 .39698792 .62960818 .39698792 .62861636 .39698792 .62361147 .3929901 .6086273L.26098634 .082962039C.2519989 .04598999 .24899292 .035995485 .14399719 .035995485 .10798645 .035995485 .09899902 .035995485 .09899902 .01399231 .09899902 .010986328 .100997928 0 .115997318 0 .14399719 0 .17399597 .0029907227 .20199585 .0029907227 .22999573 .0029907227 .2599945 .0039978029 .28799439 .0039978029 .31599427 .0039978029 .34999085 .0039978029 .37799073 .0029907227 .40499879 .0019989014 .43499757 0 .46199037 0 .46998597 0 .4850006 0 .4850006 .021987915 .4850006 .035995485 .47499085 .035995485 .44400025 .035995485 .4249878 .035995485 .40499879 .036987306 .38598634 .037994386 .35198976 .040985109 .34999085 .04498291 .34999085 .05697632 .34999085 .0639801 .34999085 .065979007 .35398866 .07997131L.48599244 .6046295Z"/>
<path id="font_3_1" d="M.84098818 .60165408C.84999087 .63861086 .85198977 .64660647 .9259949 .64660647 .94799807 .64660647 .95999148 .64660647 .95999148 .6686096 .95999148 .6726074 .95700076 .6826172 .94400027 .6826172 .9149933 .6826172 .84199526 .6786041 .8129883 .6786041 .79599 .6786041 .7609863 .6786041 .74398806 .6796112 .723999 .680603 .69999697 .6826172 .68099978 .6826172 .6749878 .6826172 .6599884 .6826172 .6599884 .660614 .6599884 .64660647 .6719971 .64660647 .69200137 .64660647 .69299319 .64660647 .71199038 .64660647 .7299957 .64460757 .7509918 .64260867 .7529907 .64060977 .7529907 .6306305 .7529907 .6296234 .7529907 .6236267 .7489929 .60865786L.6899872 .37290956H.35499574L.41299439 .60466006C.42199708 .63861086 .42399598 .64660647 .5009918 .64660647 .5179901 .64660647 .5309906 .64660647 .5309906 .6686096 .5309906 .6726074 .5279999 .6826172 .5149994 .6826172 .48599244 .6826172 .41299439 .6786041 .38398744 .6786041 .36698915 .6786041 .33198548 .6786041 .31498719 .6796112 .29499818 .680603 .2709961 .6826172 .2519989 .6826172 .24598694 .6826172 .23098755 .6826172 .23098755 .660614 .23098755 .64660647 .24299622 .64660647 .2630005 .64660647 .2639923 .64660647 .2829895 .64660647 .30099488 .64460757 .32199098 .64260867 .32398988 .64060977 .32398988 .6306305 .32398988 .6286316 .32398988 .6236267 .31999208 .60865786L.18699646 .07798767C.1789856 .04399109 .1769867 .035995485 .09899902 .035995485 .08198547 .035995485 .068984989 .035995485 .068984989 .01499939 .068984989 .004989624 .07598877 0 .084991458 0 .11399841 0 .18598938 .0039978029 .21499634 .0039978029 .23199463 .0039978029 .2669983 .0039978029 .28399659 .0029907227 .3039856 .0019989014 .32899476 0 .34799195 0 .35299684 0 .36898805 0 .36898805 .020996094 .36898805 .035995485 .35899354 .035995485 .33599855 .035995485 .31999208 .035995485 .31599427 .035995485 .2979889 .037994386 .27598573 .040985109 .27598573 .04298401 .27598573 .052993776 .27598573 .053985597 .27598573 .0599823 .27999879 .07498169L.34599305 .33691407H.68099978L.6159973 .07798767C.60798647 .04399109 .60598757 .035995485 .5279999 .035995485 .5109863 .035995485 .49798585 .035995485 .49798585 .01499939 .49798585 .004989624 .5049896 0 .5139923 0 .54299929 0 .61499026 .0039978029 .6439972 .0039978029 .6609955 .0039978029 .69599917 .0039978029 .71299746 .0029907227 .73298647 .0019989014 .7579956 0 .7769928 0 .7819977 0 .7979889 0 .7979889 .020996094 .7979889 .035995485 .7879944 .035995485 .7649994 .035995485 .7489929 .035995485 .7449951 .035995485 .72698977 .037994386 .7049866 .040985109 .7049866 .04298401 .7049866 .052993776 .7049866 .05899048 .70799258 .068984989 .70899966 .07498169L.84098818 .60165408Z"/>
<path id="font_4_1" d="M.31698609 .75C.31098939 .7480011 .30599977 .7429962 .30099488 .7389984 .29100038 .7299957 .28199769 .7220001 .272995 .71299746 .23799134 .6779938 .20799256 .6389923 .18299866 .59599307 .1309967 .5019989 .10499573 .3939972 .100997928 .2869873 .09700012 .18899536 .10899353 .09199524 .14099121-.0010070801 .16699219-.07600403 .20899964-.14700318 .2649994-.20300293 .27799989-.21600342 .29100038-.2290039 .30599977-.24101258 .31199647-.24501038 .31900025-.25100709 .32699586-.2480011 .33399964-.2440033 .33299256-.23600769 .32899476-.23100281 .31799317-.21800232 .30499269-.20700073 .2939911-.1940155 .24598694-.13700867 .21299744-.070007327 .19198609 .0009918213 .16699219 .08099365 .15899658 .1659851 .15899658 .25 .15899658 .37399293 .1769867 .5049896 .23899842 .61499026 .2539978 .6439972 .272995 .67099 .2939911 .69599917 .30099488 .70399478 .30799867 .71199038 .31599427 .7200012 .32099916 .72499087 .32699586 .7299957 .33099366 .73599246 .33599855 .74598696 .32598878 .7529907 .31698609 .75Z"/>
<path id="font_2_2" d="M.20599365 .3996582H.2999878C.31999208 .3996582 .32998658 .3996582 .32998658 .41966249 .32998658 .43066407 .31999208 .43066407 .3019867 .43066407H.21398926C.25 .5724945 .25498963 .59246829 .25498963 .59846499 .25498963 .61546328 .24299622 .62545779 .22599793 .62545779 .22299195 .62545779 .19499207 .62446597 .18598938 .58947756L.14698792 .43066407H.052993776C.032989503 .43066407 .022994996 .43066407 .022994996 .4116516 .022994996 .3996582 .0309906 .3996582 .050994874 .3996582H.13899231C.066986087 .11608887 .06298828 .099121097 .06298828 .08114624 .06298828 .02722168 .100997928-.0107421879 .15499878-.0107421879 .25698854-.0107421879 .31399537 .13505554 .31399537 .14305115 .31399537 .1530304 .30599977 .1530304 .3019867 .1530304 .29299928 .1530304 .2919922 .15003968 .2869873 .13905335 .24398804 .035217287 .19099427 .011245728 .15699768 .011245728 .13598633 .011245728 .12599182 .024230957 .12599182 .057174684 .12599182 .08114624 .12799073 .088134769 .13198853 .10510254L.20599365 .3996582Z"/>
<path id="font_4_2" d="M.06298828 .75C.055999757 .746994 .055999757 .73999026 .05999756 .73399356 .067993167 .7220001 .08099365 .71199038 .09098816 .70098879 .1349945 .6499939 .16699219 .58999636 .18899536 .526001 .21998596 .43699647 .22999573 .34298707 .22999573 .25 .22999573 .1329956 .21299744 .011993408 .1599884-.0940094 .14299011-.12800598 .12298584-.16000366 .09799194-.19000244 .09199524-.1980133 .084991458-.20600891 .07699585-.21400452 .070999149-.22000122 .06498718-.2250061 .05999756-.23200989 .053985597-.2400055 .05899048-.25001527 .068984989-.24900818 .07499695-.2480011 .07998657-.24301148 .083999637-.2400055 .09399414-.23200989 .10398865-.2230072 .11299133-.21400452 .1499939-.17700196 .18199158-.13700867 .20698548-.09100342 .2709961 .023986817 .29299928 .15699768 .28799439 .2869873 .2849884 .37098695 .2689972 .45498658 .23599243 .5329895 .20899964 .598999 .16999817 .6589966 .11999512 .70899966 .10798645 .72099307 .09599304 .7319946 .08299255 .7429962 .07699585 .746994 .070999149 .7529907 .06298828 .75Z"/>
<path id="font_1_57" d="M.47099305 .17089844V.23188782H.37199403V.65625H.2809906L.027999878 .23188782V.17089844H.29299928V0H.37199403V.17089844H.47099305M.29899598 .23188782H.10598755C.1579895 .31796266 .2979889 .5551605 .29899598 .6121979V.23188782Z"/>
<path id="font_1_88" d="M.17999268 0V.08299255H.09700012V0H.17999268Z"/>
<path id="font_1_107" d="M.44898988 0V.070999149H.2669983C.25498963 .070999149 .24299622 .069992069 .23098755 .069992069H.12199402C.1539917 .09794617 .22999573 .17280579 .26098634 .20178223 .27999879 .2197876 .33099366 .2617798 .34999085 .27978517 .394989 .32476808 .44898988 .37776185 .44898988 .4627533 .44898988 .5777283 .36799623 .6777344 .23599243 .6777344 .12199402 .6777344 .06599426 .59973147 .041992189 .51374819 .053985597 .49674989 .05899048 .49075318 .06098938 .4877472 .06298828 .4857483 .07299805 .4727478 .08299255 .4587555 .102996829 .5357361 .1309967 .61372378 .22200012 .61372378 .31599427 .61372378 .36698915 .53874209 .36698915 .4607544 .36698915 .37576295 .30999757 .31877137 .25099183 .25878907L.17399597 .18777466 .049987794 .06399536V0H.44898988Z"/>
<path id="font_1_101" d="M.45700074 .22172547C.45700074 .34985353 .3909912 .46191407 .29499818 .46191407 .2630005 .46191407 .18699646 .4539032 .12599182 .37887574 .13899231 .5398102 .21798706 .61972048 .30999757 .61972048 .34799195 .61972048 .37998963 .61273196 .4149933 .5987549V.6577301C.3639984 .6777344 .32299806 .6777344 .30899049 .6777344 .16799927 .6777344 .041992189 .53681948 .041992189 .32182313 .041992189 .038528444 .1659851-.022460938 .25099183-.022460938 .31098939-.022460938 .35398866 .0005340576 .3929901 .045532228 .43798829 .096588138 .45700074 .14263916 .45700074 .22172547M.375 .22172547C.375 .1876831 .375 .14163208 .35099793 .1006012 .33399964 .0725708 .30799867 .038528444 .25099183 .038528444 .14498902 .038528444 .12998963 .1856842 .1269989 .21871948 .1269989 .23272705 .1269989 .23472595 .12799073 .24674988 .12799073 .32081605 .17298889 .40090943 .2559967 .40090943 .3039856 .40090943 .33198548 .375885 .35198976 .33883668 .37298585 .3018036 .375 .2667694 .375 .22172547Z"/>
<path id="font_5_1" d="M.6769867 .16200257H.6519928C.6469879 .13600159 .6429901 .11299133 .6339874 .08898926 .6289978 .07299805 .6259918 .06498718 .56799319 .06498718H.48799134C.5009918 .1210022 .5319977 .16900635 .57699587 .23501587 .6239929 .306015 .6649933 .37503053 .6649933 .45404054 .6649933 .59306338 .5299988 .7050781 .36099244 .7050781 .18899536 .7050781 .055999757 .5910492 .055999757 .45404054 .055999757 .37503053 .09700012 .306015 .14399719 .23501587 .18798828 .16900635 .21998596 .1210022 .23298645 .06498718H.15299988C.09498596 .06498718 .09199524 .07299805 .08699036 .08799744 .07899475 .11099243 .07398987 .13700867 .068984989 .16200257H.04399109L.07699585 0H.23699951C.25898744 0 .2619934 0 .2619934 .020996094 .2619934 .09098816 .23098755 .17900086 .20799256 .24301148 .18699646 .3010254 .15899658 .3800354 .15899658 .45503236 .15899658 .6150665 .2689972 .68307498 .3600006 .68307498 .45599366 .68307498 .56199648 .61105349 .56199648 .45503236 .56199648 .3800354 .5349884 .3040161 .5059967 .22201538 .4909973 .18000794 .45899964 .08999634 .45899964 .020996094 .45899964 0 .46199037 0 .4850006 0H.6439972L.6769867 .16200257Z"/>
<path id="font_1_100" d="M.45700074 .59124758V.65625H.041992189V.5852356H.23199463C.24398804 .5852356 .2559967 .5862427 .2679901 .5862427H.3889923C.24099732 .4232483 .1519928 .22325135 .1519928-.0107421879H.23599243C.23599243 .2892456 .3789978 .5032501 .45700074 .59124758Z"/>
<path id="font_1_106" d="M.45700074 .17964173C.45700074 .27072145 .3869934 .33276368 .31900025 .35375978 .394989 .39476014 .42999269 .4627533 .42999269 .5257416 .42999269 .61172488 .34700013 .6777344 .24798584 .6777344 .17098999 .6777344 .09799194 .63772585 .055999757 .56773379L.09199524 .51374819C.12098694 .583725 .18598938 .61972048 .24699402 .61972048 .29899598 .61972048 .34799195 .58973696 .34799195 .5257416 .34799195 .4647522 .30699159 .40576173 .24598694 .39175416 .23999024 .39076234 .23799134 .39076234 .16699219 .38476563V.323761H.23799134C.34599305 .323761 .36799623 .23068238 .36799623 .1806488 .36799623 .10258484 .32199098 .038528444 .24499512 .038528444 .17599488 .038528444 .09700012 .07356262 .052993776 .14161682L.041992189 .08155823C.114990238-.012466431 .20698548-.022460938 .24699402-.022460938 .36898805-.022460938 .45700074 .07455444 .45700074 .17964173Z"/>
<path id="font_2_1" d="M.23098755 .35134889C.23599243 .37236024 .24598694 .41036988 .24598694 .41537477 .24598694 .43237306 .23399353 .4423828 .21699524 .4423828 .21398926 .4423828 .18598938 .44137574 .1769867 .40637208L.032989503-.17282105C.02999878-.18482971 .02999878-.18682862 .02999878-.18882752 .02999878-.2038269 .040985109-.21582031 .057998659-.21582031 .07899475-.21582031 .09098816-.1978302 .09298706-.19482422 .09700012-.18582154 .10998535-.13380432 .147995 .020248414 .17999268-.0067443849 .22499085-.0107421879 .24499512-.0107421879 .31498719-.0107421879 .35398866 .03425598 .37799073 .06227112 .3869934 .01725769 .42399598-.0107421879 .46798707-.0107421879 .5029907-.0107421879 .526001 .012252808 .5419922 .044265748 .5589905 .08027649 .57199099 .14129639 .57199099 .14329529 .57199099 .1532898 .5629883 .1532898 .55999758 .1532898 .5499878 .1532898 .548996 .14929199 .54599 .13528443 .5289917 .07026672 .5109863 .011245728 .46998597 .011245728 .44299317 .011245728 .43998719 .037261964 .43998719 .057266237 .43998719 .07926941 .45199586 .12628174 .45999146 .16130066L.48799134 .2693329C.4909973 .28433229 .5009918 .32234193 .5049896 .3373413 .5099945 .36035157 .519989 .3983612 .519989 .40437318 .519989 .42237855 .5059967 .43138124 .4909973 .43138124 .48599244 .43138124 .45999146 .43037416 .45199586 .3963623L.40499879 .20930481C.3929901 .15930176 .38198854 .11727905 .3789978 .107284549 .37799073 .10227966 .32998658 .011245728 .24899292 .011245728 .19898987 .011245728 .1749878 .044265748 .1749878 .09828186 .1749878 .12728882 .18199158 .1552887 .18899536 .18330384L.23098755 .35134889Z"/>
<path id="font_1_54" d="M.526001 .6263275V.69132998H.09399414V0H.18299866V.31497193H.4850006V.37597657H.18299866V.6273346H.31399537C.32598878 .6273346 .33799745 .6263275 .34999085 .6263275H.526001Z"/>
<path id="font_1_28" d="M.40899659 .00024414063V.28903199C.40899659 .39094544 .33599855 .4609375 .24398804 .4609375 .1789856 .4609375 .13398743 .44493104 .08699036 .41792298L.09298706 .3519745C.14498902 .38894654 .19499207 .40193177 .24398804 .40193177 .29100038 .40193177 .33099366 .361969 .33099366 .2880249V.24505615C.18099976 .24305725 .053985597 .20106507 .053985597 .11317444 .053985597 .07022095 .08099365-.0107421879 .16799927-.0107421879 .18199158-.0107421879 .27598573-.008743286 .33399964 .036254884V.00024414063H.40899659M.33099366 .13214112C.33099366 .11317444 .33099366 .0881958 .29699708 .069229129 .2679901 .051254274 .22999573 .050247194 .21899414 .050247194 .17098999 .050247194 .12599182 .07322693 .12599182 .11515808 .12599182 .18507385 .28799439 .19206238 .33099366 .19406128V.13214112Z"/>
<path id="font_1_35" d="M.47999574 .22306824C.47999574 .34707643 .4119873 .45507813 .31799317 .45507813 .2789917 .45503236 .21699524 .44500733 .15699768 .39595033V.69433596H.08198547V-.000045776369L.1599884 .00024414063V.04624939C.18399048 .024246216 .22698975-.0107421879 .2939911-.0107421879 .3939972-.0107421879 .47999574 .08920288 .47999574 .22306824M.4019928 .22306824C.4019928 .09320068 .31799317 .050247194 .25698854 .050247194 .21798706 .050247194 .18499756 .068237308 .1599884 .11418152V.33496095C.17599488 .35906983 .21199036 .3940735 .2669983 .3940735 .32598878 .3940735 .4019928 .35107423 .4019928 .22306824Z"/>
</defs>
<path transform="matrix(1,0,0,-1,45.720994,94.761)" stroke-width=".3985" stroke-linecap="butt" stroke-miterlimit="10" stroke-linejoin="miter" fill="none" stroke="#000000" d="M0 70.867V47.33922M0 23.52777V0"/>
<use data-text="+" xlink:href="#font_1_89" transform="matrix(9.9626,0,0,-9.9626,34.449998,33.222)"/>
<path transform="matrix(1,0,0,-1,45.720994,94.761)" stroke-width=".797" stroke-linecap="butt" stroke-miterlimit="10" stroke-linejoin="miter" fill="none" stroke="#000000" d="M11.90572 35.43349C11.90572 42.00891 6.57541 47.33922 0 47.33922-6.57541 47.33922-11.90572 42.00891-11.90572 35.43349-11.90572 28.85808-6.57541 23.52777 0 23.52777 6.57541 23.52777 11.90572 28.85808 11.90572 35.43349ZM0 35.43349"/>
<path transform="matrix(1,0,0,-1,45.720994,94.761)" stroke-width=".797" stroke-linecap="butt" stroke-miterlimit="10" stroke-linejoin="miter" fill="none" stroke="#000000" d="M-5.95285 35.43349C-4.98253 36.9574-4.0539 38.40991-2.97643 38.40991-1.89896 38.40991-.97032 36.95741 0 35.43349 .9703 33.90959 1.89894 32.45706 2.97643 32.45706 4.05388 32.45706 4.98251 33.90958 5.95285 35.43349"/>
<use data-text="v" xlink:href="#font_2_3" transform="matrix(9.9626,0,0,-9.9626,1.5059967,61.474004)"/>
<use data-text="T" xlink:href="#font_3_2" transform="matrix(6.9738,0,0,-6.9738,6.3349916,62.969007)"/>
<use data-text="H" xlink:href="#font_3_1" transform="matrix(6.9738,0,0,-6.9738,12.102325,62.969007)"/>
<use data-text="p" xlink:href="#font_4_1" transform="matrix(9.9626,0,0,-9.9626,19.669999,61.474004)"/>
<use data-text="t" xlink:href="#font_2_2" transform="matrix(9.9626,0,0,-9.9626,23.543,61.474004)"/>
<use data-text="q" xlink:href="#font_4_2" transform="matrix(9.9626,0,0,-9.9626,27.141007,61.474004)"/>
<path transform="matrix(1,0,0,-1,45.720994,94.761)" stroke-width=".3985" stroke-linecap="butt" stroke-miterlimit="10" stroke-linejoin="miter" fill="none" stroke="#000000" d="M0 70.867 19.5593 70.86699M51.3077 70.86699 70.867 70.867"/>
<path transform="matrix(1,0,0,-1,45.720994,94.761)" stroke-width=".797" stroke-linecap="butt" stroke-linejoin="bevel" fill="none" stroke="#000000" d="M19.1608 70.86699 22.20499 76.81984 27.49637 64.91414 32.78775 76.81984 38.07913 64.91414 43.37053 76.81984 48.66191 64.91414 51.7061 70.86699"/>
<use data-text="4" xlink:href="#font_1_57" transform="matrix(9.9626,0,0,-9.9626,67.04099,14.125)"/>
<use data-text="." xlink:href="#font_1_88" transform="matrix(9.9626,0,0,-9.9626,72.022289,14.125)"/>
<use data-text="2" xlink:href="#font_1_107" transform="matrix(9.9626,0,0,-9.9626,74.79189,14.125)"/>
<use data-text="6" xlink:href="#font_1_101" transform="matrix(9.9626,0,0,-9.9626,79.773189,14.125)"/>
<use data-text="&#x2126;" xlink:href="#font_5_1" transform="matrix(9.9626,0,0,-9.9626,88.072,14.125)"/>
<path transform="matrix(1,0,0,-1,45.720994,94.761)" stroke-width=".3985" stroke-linecap="butt" stroke-miterlimit="10" stroke-linejoin="miter" fill="none" stroke="#000000" d="M70.867 70.867 102.33203 70.86699M110.26898 70.86699 141.73404 70.867"/>
<path transform="matrix(1,0,0,-1,45.720994,94.761)" stroke-width=".797" stroke-linecap="butt" stroke-miterlimit="10" stroke-linejoin="miter" fill="none" stroke="#000000" d="M102.33203 82.7727V58.96127M110.26898 82.7727V58.96127"/>
<path transform="matrix(1,0,0,-1,45.720994,94.761)" d="M143.32118 70.867C143.32118 71.74358 142.6106 72.45416 141.73404 72.45416 140.85749 72.45416 140.1469 71.74358 140.1469 70.867 140.1469 69.99045 140.85749 69.27986 141.73404 69.27986 142.6106 69.27986 143.32118 69.99045 143.32118 70.867ZM141.73404 70.867" fill="#ffffff"/>
<path transform="matrix(1,0,0,-1,45.720994,94.761)" stroke-width=".3985" stroke-linecap="butt" stroke-miterlimit="10" stroke-linejoin="miter" fill="none" stroke="#000000" d="M143.32118 70.867C143.32118 71.74358 142.6106 72.45416 141.73404 72.45416 140.85749 72.45416 140.1469 71.74358 140.1469 70.867 140.1469 69.99045 140.85749 69.27986 141.73404 69.27986 142.6106 69.27986 143.32118 69.99045 143.32118 70.867ZM141.73404 70.867"/>
<path transform="matrix(1,0,0,-1,45.720994,94.761)" d="" fill="#ffffff"/>
<path transform="matrix(1,0,0,-1,45.720994,94.761)" stroke-width=".3985" stroke-linecap="butt" stroke-miterlimit="10" stroke-linejoin="miter" fill="none" stroke="#000000" d=""/>
<use data-text="7" xlink:href="#font_1_100" transform="matrix(9.9626,0,0,-9.9626,137.055,7.5770037)"/>
<use data-text="4" xlink:href="#font_1_57" transform="matrix(9.9626,0,0,-9.9626,142.03629,7.5770037)"/>
<use data-text="3" xlink:href="#font_1_106" transform="matrix(9.9626,0,0,-9.9626,147.01758,7.5770037)"/>
<use data-text="&#x00b5;" xlink:href="#font_2_1" transform="matrix(9.9626,0,0,-9.9626,155.31699,7.5770037)"/>
<use data-text="F" xlink:href="#font_1_54" transform="matrix(9.9626,0,0,-9.9626,161.31999,7.5770037)"/>
<use data-text="a" xlink:href="#font_1_28" transform="matrix(9.9626,0,0,-9.9626,190.97499,26.136002)"/>
<path transform="matrix(1,0,0,-1,45.720994,94.761)" stroke-width=".3985" stroke-linecap="butt" stroke-miterlimit="10" stroke-linejoin="miter" fill="none" stroke="#000000" d="M0 0H70.867M70.867 0H141.73404"/>
<path transform="matrix(1,0,0,-1,45.720994,94.761)" d="M143.32118 0C143.32118 .87656 142.6106 1.58714 141.73404 1.58714 140.85749 1.58714 140.1469 .87656 140.1469 0 140.1469-.87656 140.85749-1.58714 141.73404-1.58714 142.6106-1.58714 143.32118-.87656 143.32118 0ZM141.73404 0" fill="#ffffff"/>
<path transform="matrix(1,0,0,-1,45.720994,94.761)" stroke-width=".3985" stroke-linecap="butt" stroke-miterlimit="10" stroke-linejoin="miter" fill="none" stroke="#000000" d="M143.32118 0C143.32118 .87656 142.6106 1.58714 141.73404 1.58714 140.85749 1.58714 140.1469 .87656 140.1469 0 140.1469-.87656 140.85749-1.58714 141.73404-1.58714 142.6106-1.58714 143.32118-.87656 143.32118 0ZM141.73404 0"/>
<path transform="matrix(1,0,0,-1,45.720994,94.761)" d="" fill="#ffffff"/>
<path transform="matrix(1,0,0,-1,45.720994,94.761)" stroke-width=".3985" stroke-linecap="butt" stroke-miterlimit="10" stroke-linejoin="miter" fill="none" stroke="#000000" d=""/>
<use data-text="b" xlink:href="#font_1_35" transform="matrix(9.9626,0,0,-9.9626,190.97499,98.163)"/>
</svg>
